<svg xmlns="http://www.w3.org/2000/svg" viewBox="0 0 400 240">
  <defs>
    <linearGradient id="lab-light" x1="0" y1="0" x2="1" y2="1">
      <stop offset="0%" stop-color="#f5e6d3"/>
      <stop offset="100%" stop-color="#d9c8b8"/>
    </linearGradient>
    <radialGradient id="lab-lamp" cx="50%" cy="30%">
      <stop offset="0%" stop-color="#fff9e6"/>
      <stop offset="100%" stop-color="#f0dea0"/>
    </radialGradient>
  </defs>
  <rect width="400" height="240" fill="url(#lab-light)"/>
  <rect x="40" y="60" width="320" height="140" rx="12" fill="#e8d9c8" opacity="0.95"/>
  <rect x="60" y="80" width="280" height="100" fill="#f2e8dc"/>
  <g fill="#7a6e62">
    <rect x="70" y="95" width="35" height="70" rx="3"/>
    <rect x="125" y="92" width="40" height="75" rx="3"/>
    <rect x="185" y="98" width="35" height="68" rx="3"/>
    <rect x="240" y="90" width="45" height="76" rx="3"/>
    <rect x="305" y="100" width="30" height="65" rx="3"/>
  </g>
  <rect x="80" y="105" width="20" height="35" rx="2" fill="#d9c5b3" opacity="0.7"/>
  <rect x="135" y="108" width="22" height="38" rx="2" fill="#c9b5a3" opacity="0.7"/>
  <path d="M120 160h160" stroke="#8b7f77" stroke-width="2" opacity="0.5"/>
  <rect x="100" y="175" width="200" height="4" rx="2" fill="#a89f97"/>
  <circle cx="200" cy="75" r="12" fill="url(#lab-lamp)"/>
  <path d="M198 63l4-8 4 8" fill="#c9b5a3"/>
  <g fill="#d4a574" opacity="0.35">
    <rect x="85" y="50" width="8" height="20"/>
    <rect x="145" y="48" width="10" height="22"/>
    <rect x="260" y="52" width="8" height="18"/>
  </g>
  <path d="M60 190h280" stroke="#8b7f77" stroke-width="1" opacity="0.3"/>
</svg>